<?xml version="1.0" encoding="UTF-8"?>
<svg version="1.1" xmlns="http://www.w3.org/2000/svg" width="270" height="84">
<path d="M0 0 C1.25103516 -0.03738281 2.50207031 -0.07476562 3.79101562 -0.11328125 C11.56694905 -0.18690924 17.23405646 0.4552402 23.4375 5.375 C25.59375 7.54296875 25.59375 7.54296875 26.9375 9.5625 C27.4015625 10.23667969 27.865625 10.91085938 28.34375 11.60546875 C31.62140637 16.90824853 30.7041189 22.91310758 30.75 29 C30.77900391 30.25941406 30.80800781 31.51882812 30.83789062 32.81640625 C30.89615994 41.3595839 30.16006725 47.12698091 24.47265625 53.6171875 C23.82167969 54.15601563 23.17070313 54.69484375 22.5 55.25 C21.52740234 56.08144531 21.52740234 56.08144531 20.53515625 56.9296875 C14.3531736 61.18915413 7.99602338 60.81019487 0.75 60.875 C-0.38373047 60.91625 -1.51746094 60.9575 -2.68554688 61 C-11.5162954 61.0814363 -17.77104051 58.9725854 -24.2097168 52.79443359 C-30.32296383 45.81511565 -29.9588749 39.62992527 -30 30.6875 C-30.03287109 29.44548828 -30.06574219 28.20347656 -30.09960938 26.92382812 C-30.14444783 19.23199426 -29.49502792 13.48033308 -24.5625 7.375 C-22.17578125 5.21875 -22.17578125 5.21875 -19.875 3.875 C-18.72451172 3.17890625 -18.72451172 3.17890625 -17.55078125 2.46875 C-11.97960313 -0.59594523 -6.27634663 0.06963168 0 0 Z M-11.5625 21.375 C-13.77952746 24.70054118 -14.3103996 25.52001749 -13.5625 29.375 C-11.64371145 31.90868695 -9.38269203 34.0240777 -7.0625 36.1875 C-6.44246094 36.78498047 -5.82242188 37.38246094 -5.18359375 37.99804688 C-3.65424512 39.46857441 -2.10978534 40.9233573 -0.5625 42.375 C1.93111571 41.17118552 4.11893083 39.92071278 6.4375 38.375 C6.4375 37.715 6.4375 37.055 6.4375 36.375 C7.015 36.16875 7.5925 35.9625 8.1875 35.75 C11.36158567 33.81028098 12.70929767 31.63938218 14.4375 28.375 C14.4375 25.10043795 13.6874186 23.73065339 11.8125 21.0625 C8.56220778 18.75308185 6.34202156 19.02004349 2.4375 19.375 C1.4475 19.705 0.4575 20.035 -0.5625 20.375 C-1.696875 20.189375 -2.83125 20.00375 -4 19.8125 C-7.56632887 19.37452979 -8.7449805 19.28794852 -11.5625 21.375 Z " fill="#06A786" transform="translate(51.5625,9.625)"/>
<path d="M0 0 C2 2 2 2 2 6 C1.16855469 6.02578125 0.33710937 6.0515625 -0.51953125 6.078125 C-1.60621094 6.13484375 -2.69289063 6.1915625 -3.8125 6.25 C-5.43091797 6.31960937 -5.43091797 6.31960937 -7.08203125 6.390625 C-10.07778155 6.73874944 -10.07778155 6.73874944 -11.86328125 8.859375 C-13.41523345 11.78195166 -13.40815446 13.7347643 -13 17 C-11.90890548 19.23302108 -11.90890548 19.23302108 -10 21 C-7.27510527 21.69749589 -7.27510527 21.69749589 -4.3125 21.75 C-3.31863281 21.80671875 -2.32476562 21.8634375 -1.30078125 21.921875 C-0.54152344 21.94765625 0.21773437 21.9734375 1 22 C0.125 26.875 0.125 26.875 -1 28 C-5.77909972 28.61373702 -9.16518896 28.45535148 -13.4375 26.125 C-18.34196497 22.05788271 -18.34196497 22.05788271 -19 18 C-19.41264197 12.53249384 -18.71343821 8.79374084 -16 4 C-11.28163701 -0.48819894 -6.25096924 -0.96687654 0 0 Z " fill="#65C3B6" transform="translate(120,28)"/>
<path d="M0 0 C0 4.95 0 9.9 0 15 C0.721875 13.845 1.44375 12.69 2.1875 11.5 C3.5546875 9.55859375 3.5546875 9.55859375 5 8 C7.8125 7.5625 7.8125 7.5625 10 8 C10 11.40037669 9.51043804 11.9768533 7.5 14.5625 C5.45917864 16.99754004 5.45917864 16.99754004 5 20 C5.61875 20.268125 6.2375 20.53625 6.875 20.8125 C9 22 9 22 11 25 C11 25.99 11 26.98 11 28 C8.70703125 28.25 8.70703125 28.25 6 28 C4.19921875 26.25 4.19921875 26.25 2.6875 24 C2.17574219 23.2575 1.66398438 22.515 1.13671875 21.75 C0.57404297 20.88375 0.57404297 20.88375 0 20 C-0.33 22.64 -0.66 25.28 -1 28 C-2.32 28 -3.64 28 -5 28 C-5.33 18.76 -5.66 9.52 -6 0 C-4 -1 -4 -1 0 0 Z " fill="#39A382" transform="translate(223,28)"/>
<path d="M0 0 C1.65 0 3.3 0 5 0 C5.06058594 0.91523437 5.12117187 1.83046875 5.18359375 2.7734375 C5.26738281 3.96195313 5.35117188 5.15046875 5.4375 6.375 C5.51871094 7.55835938 5.59992188 8.74171875 5.68359375 9.9609375 C5.81084936 12.91518901 5.81084936 12.91518901 7 15 C8.32 14.67 9.64 14.34 11 14 C11.33 9.38 11.66 4.76 12 0 C13.65 0 15.3 0 17 0 C18.19799449 4.14659373 17.8896192 7.99369047 17.5625 12.25 C17.51029297 12.99507812 17.45808594 13.74015625 17.40429688 14.5078125 C17.2751783 16.33894861 17.13834886 18.16953813 17 20 C15.35 20 13.7 20 12 20 C11.67 19.34 11.34 18.68 11 18 C10.34 18.66 9.68 19.32 9 20 C6.30929071 20.34496273 4.69496533 20.47532197 2.41796875 18.91796875 C0.33293696 16.09771914 0.19578236 13.45121825 -0.25 10 C-0.50523438 8.14375 -0.50523438 8.14375 -0.765625 6.25 C-1 3 -1 3 0 0 Z " fill="#7CCFC2" transform="translate(124,36)"/>
<path d="M0 0 C2.2109375 1.50390625 2.2109375 1.50390625 4 4 C4.2906124 6.89449949 4.38186045 9.37949935 4.25 12.25 C4.23195312 12.99507812 4.21390625 13.74015625 4.1953125 14.5078125 C4.14835649 16.33909701 4.07661652 18.16971649 4 20 C3.21625 19.835 2.4325 19.67 1.625 19.5 C-1.18061992 18.96559621 -2.62212081 18.90055811 -5.375 19.625 C-8.36863138 20.05266163 -9.48828873 19.58144783 -12 18 C-12.48309179 11.59903382 -12.48309179 11.59903382 -10.4375 9.0625 C-7.19917389 7.65092195 -4.49186021 7.79854653 -1 8 C-1.33 6.68 -1.66 5.36 -2 4 C-4.64 4.66 -7.28 5.32 -10 6 C-9.625 3.5625 -9.625 3.5625 -9 1 C-5.90826248 -0.54586876 -3.40570448 -0.29359521 0 0 Z M-8 12 C-7.67 13.32 -7.34 14.64 -7 16 C-5.35 15.67 -3.7 15.34 -2 15 C-1.67 13.68 -1.34 12.36 -1 11 C-4.62885324 10.84850702 -4.62885324 10.84850702 -8 12 Z " fill="#2DA28A" transform="translate(170,36)"/>
<path d="M0 0 C1.32 0.33 2.64 0.66 4 1 C4.33 1.66 4.66 2.32 5 3 C5.37125 2.484375 5.7425 1.96875 6.125 1.4375 C8 0 8 0 11.0625 0.125 C14 1 14 1 16 4 C16.14221065 6.60245498 16.18802932 9.09117684 16.125 11.6875 C16.11597656 12.38939453 16.10695312 13.09128906 16.09765625 13.81445312 C16.07413704 15.54311525 16.03826713 17.27160145 16 19 C14.68 19 13.36 19 12 19 C11 18 11 18 10.9375 16.07421875 C10.97896222 14.49088005 11.02062687 12.90754664 11.0625 11.32421875 C11.00156103 9.05805083 10.63512433 7.16835415 10 5 C8.68 5.33 7.36 5.66 6 6 C5.93941406 6.84304687 5.87882813 7.68609375 5.81640625 8.5546875 C5.73261719 9.65039062 5.64882812 10.74609375 5.5625 11.875 C5.48128906 12.96554688 5.40007812 14.05609375 5.31640625 15.1796875 C5 18 5 18 4 20 C2.68 20 1.36 20 0 20 C0 13.4 0 6.8 0 0 Z " fill="#55B399" transform="translate(197,36)"/>
<path d="M0 0 C2.475 0.495 2.475 0.495 5 1 C5.02891949 5.29165262 5.04677118 9.58328036 5.0625 13.875 C5.07087891 15.09832031 5.07925781 16.32164063 5.08789062 17.58203125 C5.09111328 18.74863281 5.09433594 19.91523437 5.09765625 21.1171875 C5.10289307 22.19597168 5.10812988 23.27475586 5.11352539 24.38623047 C5 27 5 27 4 29 C2.68 29 1.36 29 0 29 C0 19.43 0 9.86 0 0 Z " fill="#70CCBB" transform="translate(178,27)"/>
<path d="M0 0 C2 2 2 2 2 6 C0.77023438 6.03867187 0.77023438 6.03867187 -0.484375 6.078125 C-2.10085937 6.16320313 -2.10085937 6.16320313 -3.75 6.25 C-5.35101563 6.31960937 -5.35101563 6.31960937 -6.984375 6.390625 C-10.52405508 7.10589714 -11.73881962 8.25584905 -14 11 C-14 10.01 -14 9.02 -14 8 C-14.99 8 -15.98 8 -17 8 C-17 11.3 -17 14.6 -17 18 C-17.66 18 -18.32 18 -19 18 C-19.33515324 12.52583043 -18.7162915 8.79878165 -16 4 C-11.28163701 -0.48819894 -6.25096924 -0.96687654 0 0 Z " fill="#77CBC1" transform="translate(120,28)"/>
<path d="M0 0 C2.97 0.495 2.97 0.495 6 1 C8.27650745 0.6422386 8.27650745 0.6422386 10 0 C10 1.98 10 3.96 10 6 C9.360625 6.12375 8.72125 6.2475 8.0625 6.375 C7.0415625 6.684375 7.0415625 6.684375 6 7 C4.73762269 9.52475462 4.90143596 11.31200466 4.9375 14.125 C4.95103516 15.49011719 4.95103516 15.49011719 4.96484375 16.8828125 C4.97644531 17.58148438 4.98804688 18.28015625 5 19 C3.35 19.33 1.7 19.66 0 20 C0 13.4 0 6.8 0 0 Z " fill="#4CB3A0" transform="translate(146,36)"/>
<path d="M0 0 C1.65 0 3.3 0 5 0 C6.12505874 3.37517622 5.73739658 4.6068359 5 8 C4.92350219 9.61961498 4.89188319 11.24189445 4.90234375 12.86328125 C4.90556641 13.74951172 4.90878906 14.63574219 4.91210938 15.54882812 C4.92048828 16.46083984 4.92886719 17.37285156 4.9375 18.3125 C4.94201172 19.24384766 4.94652344 20.17519531 4.95117188 21.13476562 C4.96290766 23.42324373 4.97932637 25.71158808 5 28 C3.68 28 2.36 28 1 28 C0.67 18.76 0.34 9.52 0 0 Z " fill="#9BD8CC" transform="translate(187,28)"/>
<path d="M0 0 C1.11375 0.185625 1.11375 0.185625 2.25 0.375 C2.25 3.77537669 1.76043804 4.3518533 -0.25 6.9375 C-2.29082136 9.37254004 -2.29082136 9.37254004 -2.75 12.375 C-2.13125 12.643125 -1.5125 12.91125 -0.875 13.1875 C1.25 14.375 1.25 14.375 3.25 17.375 C3.25 18.365 3.25 19.355 3.25 20.375 C0.98828125 20.65625 0.98828125 20.65625 -1.75 20.375 C-3.76953125 18.40625 -3.76953125 18.40625 -5.5625 15.875 C-6.46935547 14.62203125 -6.46935547 14.62203125 -7.39453125 13.34375 C-7.84183594 12.6940625 -8.28914062 12.044375 -8.75 11.375 C-8.09 10.715 -7.43 10.055 -6.75 9.375 C-6.75 8.385 -6.75 7.395 -6.75 6.375 C-3.63760807 0.49603746 -3.63760807 0.49603746 0 0 Z " fill="#45A485" transform="translate(230.75,35.625)"/>
<path d="M0 0 C1.32 0.33 2.64 0.66 4 1 C4 7.27 4 13.54 4 20 C2.68 20 1.36 20 0 20 C0 13.4 0 6.8 0 0 Z " fill="#399F83" transform="translate(197,36)"/>
<path d="M0 0 C2.2109375 1.50390625 2.2109375 1.50390625 4 4 C4.2906124 6.89449949 4.38186045 9.37949935 4.25 12.25 C4.23195312 12.99507812 4.21390625 13.74015625 4.1953125 14.5078125 C4.14835649 16.33909701 4.07661652 18.16971649 4 20 C2.68 19.67 1.36 19.34 0 19 C0.99 19 1.98 19 3 19 C3 14.38 3 9.76 3 5 C1.411875 4.979375 -0.17625 4.95875 -1.8125 4.9375 C-2.70582031 4.92589844 -3.59914062 4.91429687 -4.51953125 4.90234375 C-7.13413791 4.88990033 -7.13413791 4.88990033 -10 6 C-9.625 3.5625 -9.625 3.5625 -9 1 C-5.90826248 -0.54586876 -3.40570448 -0.29359521 0 0 Z " fill="#76CEBB" transform="translate(170,36)"/>
<path d="M0 0 C0.33 0 0.66 0 1 0 C1.1174875 3.33303003 1.18767324 6.66551837 1.25 10 C1.30027344 11.40185547 1.30027344 11.40185547 1.3515625 12.83203125 C1.46378111 20.85566209 -0.34542222 25.96619682 -5.625 32 C-8 34 -8 34 -10 34 C-9.8125 32.125 -9.8125 32.125 -9 30 C-6.4375 28.75 -6.4375 28.75 -4 28 C-3.814375 26.4840625 -3.814375 26.4840625 -3.625 24.9375 C-3 21 -3 21 -2 17.9375 C-0.22327226 12.1830236 -0.314778 5.97249838 0 0 Z " fill="#2B9C7C" transform="translate(81,32)"/>
<path d="M0 0 C0.85851562 -0.00322266 1.71703125 -0.00644531 2.6015625 -0.00976562 C8.97374295 0.0449953 8.97374295 0.0449953 12.375 2.3125 C12.375 3.3025 12.375 4.2925 12.375 5.3125 C13.035 5.6425 13.695 5.9725 14.375 6.3125 C13.715 6.9725 13.055 7.6325 12.375 8.3125 C12.08625 7.673125 11.7975 7.03375 11.5 6.375 C10.54676549 4.16043921 10.54676549 4.16043921 8.375 3.3125 C4.70170036 3.17892547 1.87647041 3.1453432 -1.625 4.3125 C-3.95833333 3.97916667 -6.29166667 3.64583333 -8.625 3.3125 C-11.90273504 4.06400023 -11.90273504 4.06400023 -13.625 7.3125 C-14.285 7.3125 -14.945 7.3125 -15.625 7.3125 C-15.33514397 4.5105584 -14.8718996 3.51734255 -12.67578125 1.6953125 C-8.40443019 -0.24074163 -4.6318431 -0.0877243 0 0 Z " fill="#36AB96" transform="translate(52.625,26.6875)"/>
<path d="M0 0 C1.65 0 3.3 0 5 0 C5 4.62 5 9.24 5 14 C4.01 14 3.02 14 2 14 C1.67 11.36 1.34 8.72 1 6 C-0.65 5.67 -2.3 5.34 -4 5 C-3.34 4.34 -2.68 3.68 -2 3 C-1.01 3 -0.02 3 1 3 C0.67 2.01 0.34 1.02 0 0 Z " fill="#1A9C7F" transform="translate(168,41)"/>
<path d="M0 0 C0.66 0 1.32 0 2 0 C2.71961582 8.68679101 3.14368684 17.28299826 3 26 C2.01 26 1.02 26 0 26 C0 17.42 0 8.84 0 0 Z " fill="#1A9A7C" transform="translate(179,29)"/>
<path d="M0 0 C0.99 0 1.98 0 3 0 C3 5.94 3 11.88 3 18 C2.01 18 1.02 18 0 18 C0 17.01 0 16.02 0 15 C-0.66 15 -1.32 15 -2 15 C-1.67 14.01 -1.34 13.02 -1 12 C-0.77674186 9.94106379 -0.59294241 7.87766347 -0.4375 5.8125 C-0.35371094 4.72582031 -0.26992187 3.63914063 -0.18359375 2.51953125 C-0.12300781 1.68808594 -0.06242188 0.85664062 0 0 Z " fill="#23A28C" transform="translate(137,37)"/>
<path d="M0 0 C0.99 0 1.98 0 3 0 C3 5.94 3 11.88 3 18 C2.01 18 1.02 18 0 18 C0 12.06 0 6.12 0 0 Z " fill="#1F967A" transform="translate(188,37)"/>
<path d="M0 0 C0.55171875 0.71542969 1.1034375 1.43085937 1.671875 2.16796875 C4.05439979 5.06617425 6.58038352 7.67801005 9.25 10.3125 C10.14203125 11.19550781 11.0340625 12.07851563 11.953125 12.98828125 C12.62859375 13.65214844 13.3040625 14.31601562 14 15 C9.09723897 15 5.91405162 12.71534475 2.125 9.75 C-0.54738997 6.29161298 -0.41828808 4.26653842 0 0 Z " fill="#5BC1AE" transform="translate(37,36)"/>
<path d="M0 0 C1.29292969 -0.01224609 2.58585937 -0.02449219 3.91796875 -0.03710938 C5.15933594 -0.03904297 6.40070312 -0.04097656 7.6796875 -0.04296875 C8.81905762 -0.04707764 9.95842773 -0.05118652 11.13232422 -0.05541992 C14.02923385 0.17972652 15.67887104 0.67801932 18.125 2.1875 C15.45507033 3.52246483 13.5350156 2.85115218 10.6640625 2.44921875 C3.78137625 1.73977263 -3.21138125 1.88428391 -10.0625 2.8125 C-11.320625 2.93625 -12.57875 3.06 -13.875 3.1875 C-14.535 2.5275 -15.195 1.8675 -15.875 1.1875 C-11.32650564 -1.08674718 -4.99383178 0.00247464 0 0 Z " fill="#4CB6A5" transform="translate(51.875,9.8125)"/>
<path d="M0 0 C0.99 0 1.98 0 3 0 C3.22226864 1.76913824 3.42733873 3.54044371 3.625 5.3125 C3.74101563 6.29863281 3.85703125 7.28476562 3.9765625 8.30078125 C4 11 4 11 2 14 C1.01 14 0.02 14 -1 14 C-0.67 9.38 -0.34 4.76 0 0 Z " fill="#39B7A8" transform="translate(103,36)"/>
<path d="M0 0 C-1.30613942 3.91841827 -2.83129848 6.32640809 -6 9 C-6.66 9 -7.32 9 -8 9 C-8.99 10.485 -8.99 10.485 -10 12 C-10.66 12 -11.32 12 -12 12 C-10.92772145 6.37053761 -8.31212146 4.28258708 -3.875 1.1015625 C-2 0 -2 0 0 0 Z " fill="#3AB7A7" transform="translate(36,12)"/>
<path d="M0 0 C0.9075 0.185625 1.815 0.37125 2.75 0.5625 C5.68314324 0.95734621 7.2644657 0.94691572 10 0 C10 1.98 10 3.96 10 6 C8.35 6.33 6.7 6.66 5 7 C5 6.34 5 5.68 5 5 C4.34 5 3.68 5 3 5 C3 4.34 3 3.68 3 3 C2.01 3 1.02 3 0 3 C0 2.01 0 1.02 0 0 Z " fill="#69C1B2" transform="translate(146,36)"/>
<path d="M0 0 C0.66 0.33 1.32 0.66 2 1 C1.01 2.485 1.01 2.485 0 4 C0.66 4 1.32 4 2 4 C1.67 5.65 1.34 7.3 1 9 C0.67 8.01 0.34 7.02 0 6 C-0.99 6 -1.98 6 -3 6 C-3 9.3 -3 12.6 -3 16 C-3.66 16 -4.32 16 -5 16 C-5.34700907 10.33218526 -4.52575819 6.95437183 -2 2 C-1.34 1.34 -0.68 0.68 0 0 Z " fill="#76CEC4" transform="translate(106,30)"/>
<path d="M0 0 C1.11375 0.185625 1.11375 0.185625 2.25 0.375 C2.25 3.375 2.25 3.375 -0.25 6.0625 C-1.075 6.825625 -1.9 7.58875 -2.75 8.375 C-3.08 7.715 -3.41 7.055 -3.75 6.375 C-4.74 6.375 -5.73 6.375 -6.75 6.375 C-3.42692308 0.46730769 -3.42692308 0.46730769 0 0 Z " fill="#69B19B" transform="translate(230.75,35.625)"/>
<path d="M0 0 C0.86625 0.3403125 0.86625 0.3403125 1.75 0.6875 C0.76 2.1725 0.76 2.1725 -0.25 3.6875 C-1.57 3.6875 -2.89 3.6875 -4.25 3.6875 C-4.25 5.3375 -4.25 6.9875 -4.25 8.6875 C-1.94 9.0175 0.37 9.3475 2.75 9.6875 C2.42 10.3475 2.09 11.0075 1.75 11.6875 C-5.125 10.8125 -5.125 10.8125 -6.25 9.6875 C-6.5625 6.3125 -6.5625 6.3125 -6.25 2.6875 C-4.13578911 0.27125898 -3.2149628 -0.44652261 0 0 Z " fill="#7EC8BA" transform="translate(164.25,44.3125)"/>
<path d="M0 0 C0.99 0 1.98 0 3 0 C3 3.96 3 7.92 3 12 C2.01 12.33 1.02 12.66 0 13 C0 8.71 0 4.42 0 0 Z " fill="#25A190" transform="translate(125,37)"/>
<path d="M0 0 C3.59584747 1.44930671 5.18832656 3.22752078 7.3125 6.4375 C7.84488281 7.21996094 8.37726563 8.00242187 8.92578125 8.80859375 C10 11 10 11 9 14 C7.66666667 12.33333333 6.33333333 10.66666667 5 9 C4.278125 8.154375 3.55625 7.30875 2.8125 6.4375 C1.1183121 4.15910937 0.40976082 2.76588555 0 0 Z " fill="#7DD0C0" transform="translate(72,14)"/>
<path d="M0 0 C0.99 0.33 1.98 0.66 3 1 C2.67 1.66 2.34 2.32 2 3 C2.66 3 3.32 3 4 3 C3.67 3.66 3.34 4.32 3 5 C2.77377919 6.70363822 2.59111527 8.41328701 2.4375 10.125 C2.31181641 11.49011719 2.31181641 11.49011719 2.18359375 12.8828125 C2.12300781 13.58148438 2.06242188 14.28015625 2 15 C1.34 15 0.68 15 0 15 C0 10.05 0 5.1 0 0 Z " fill="#15A48A" transform="translate(147,38)"/>
<path d="M0 0 C0.56203125 0.31710938 1.1240625 0.63421875 1.703125 0.9609375 C4.15196317 2.06874525 6.08387855 2.38975399 8.75 2.625 C9.54921875 2.69976562 10.3484375 2.77453125 11.171875 2.8515625 C11.77515625 2.90054688 12.3784375 2.94953125 13 3 C13 3.33 13 3.66 13 4 C9.04 4 5.08 4 1 4 C1.33 4.99 1.66 5.98 2 7 C-1.875 5.25 -1.875 5.25 -3 3 C-2.01 2.01 -1.02 1.02 0 0 Z " fill="#84D8CE" transform="translate(106,47)"/>
<path d="M0 0 C0.99 0 1.98 0 3 0 C1.60846256 4.42761914 -0.52071486 6.9556255 -4 10 C-4.66 10 -5.32 10 -6 10 C-5.8125 8.125 -5.8125 8.125 -5 6 C-2.4375 4.75 -2.4375 4.75 0 4 C0 2.68 0 1.36 0 0 Z " fill="#41A98A" transform="translate(77,56)"/>
<path d="M0 0 C0.66 0.33 1.32 0.66 2 1 C1.21625 1.7425 0.4325 2.485 -0.375 3.25 C-2.56504531 5.54433318 -3.82731386 7.12158858 -5 10 C-5.33 9.34 -5.66 8.68 -6 8 C-6.99 7.67 -7.98 7.34 -9 7 C-8.195625 6.566875 -7.39125 6.13375 -6.5625 5.6875 C-3.72153646 4.19525998 -3.72153646 4.19525998 -3 1 C-2.01 0.67 -1.02 0.34 0 0 Z " fill="#0E9E7A" transform="translate(64,44)"/>
<path d="M0 0 C0.93423645 3.01031744 1.04449911 3.86650268 0 7 C-0.99 8.485 -0.99 8.485 -2 10 C-2.99 8.35 -3.98 6.7 -5 5 C-4.67 4.67 -4.34 4.34 -4 4 C-4 3.34 -4 2.68 -4 2 C-2.68 1.34 -1.36 0.68 0 0 Z " fill="#36A888" transform="translate(227,41)"/>
<path d="M0 0 C1.65 0 3.3 0 5 0 C5 1.32 5 2.64 5 4 C3.68 4.33 2.36 4.66 1 5 C0.67 3.35 0.34 1.7 0 0 Z " fill="#6AB3A1" transform="translate(187,28)"/>
<path d="M0 0 C2.64 0 5.28 0 8 0 C5.14693203 2.32472205 2.45925163 3.7508258 -1 5 C-0.67 3.35 -0.34 1.7 0 0 Z " fill="#4CA894" transform="translate(161,37)"/>
<path d="M0 0 C0.33 0 0.66 0 1 0 C1 4.95 1 9.9 1 15 C-0.32 15 -1.64 15 -3 15 C-3 14.34 -3 13.68 -3 13 C-2.01 13 -1.02 13 0 13 C0 8.71 0 4.42 0 0 Z " fill="#54A08D" transform="translate(212,40)"/>
<path d="M0 0 C2 3 2 3 2 5 C-0.31 5.33 -2.62 5.66 -5 6 C-2.25 1.125 -2.25 1.125 0 0 Z " fill="#40B398" transform="translate(66,39)"/>
<path d="M0 0 C3.7910119 1.44950455 7.3874638 3.15172566 11 5 C11 5.66 11 6.32 11 7 C6.00724943 5.72278474 3.42388092 3.82669043 0 0 Z " fill="#39A58D" transform="translate(28,62)"/>
<path d="M0 0 C0.66 0 1.32 0 2 0 C2 2.97 2 5.94 2 9 C1.67 8.01 1.34 7.02 1 6 C-0.65 5.67 -2.3 5.34 -4 5 C-3.34 4.34 -2.68 3.68 -2 3 C-1.01 3 -0.02 3 1 3 C0.67 2.01 0.34 1.02 0 0 Z " fill="#3DA995" transform="translate(168,41)"/>
<path d="M0 0 C1.485 0.99 1.485 0.99 3 2 C3.1875 5.625 3.1875 5.625 3 9 C2.01 9 1.02 9 0 9 C0 6.03 0 3.06 0 0 Z " fill="#1B9470" transform="translate(219,45)"/>
<path d="M0 0 C3.71599191 -0.20086443 4.77208445 -0.1519437 8 2 C8 2.99 8 3.98 8 5 C8.66 5.33 9.32 5.66 10 6 C9.34 6.66 8.68 7.32 8 8 C7.79375 7.401875 7.5875 6.80375 7.375 6.1875 C5.49073918 3.18981233 3.18867916 2.38638224 0 1 C0 0.67 0 0.34 0 0 Z " fill="#2AA48A" transform="translate(57,27)"/>
<path d="M0 0 C1.98 0.66 3.96 1.32 6 2 C6.33 1.34 6.66 0.68 7 0 C7.33 1.32 7.66 2.64 8 4 C5.6875 4.25 5.6875 4.25 3 4 C1.1875 2 1.1875 2 0 0 Z " fill="#91C6B7" transform="translate(226,52)"/>
<path d="M0 0 C0.66 0 1.32 0 2 0 C2.33 1.32 2.66 2.64 3 4 C2.01 4.66 1.02 5.32 0 6 C0 5.34 0 4.68 0 4 C-0.99 4.33 -1.98 4.66 -3 5 C-1.125 1.125 -1.125 1.125 0 0 Z " fill="#42B5A6" transform="translate(108,30)"/>
<path d="M0 0 C1.32 0.66 2.64 1.32 4 2 C3.01 2.33 2.02 2.66 1 3 C-0.37195574 4.29355827 -1.71182656 5.62298702 -3 7 C-3.33 6.01 -3.66 5.02 -4 4 C-2.68 2.68 -1.36 1.36 0 0 Z " fill="#0EAF97" transform="translate(28,20)"/>
<path d="M0 0 C0.33 0.99 0.66 1.98 1 3 C-0.98 4.32 -2.96 5.64 -5 7 C-5.66 6.67 -6.32 6.34 -7 6 C-5.625 4.5 -5.625 4.5 -4 3 C-3.34 3 -2.68 3 -2 3 C-2 2.34 -2 1.68 -2 1 C-1.34 0.67 -0.68 0.34 0 0 Z " fill="#83D4C4" transform="translate(60,45)"/>
<path d="M0 0 C0.66 0.33 1.32 0.66 2 1 C0.68 3.31 -0.64 5.62 -2 8 C-2.66 8 -3.32 8 -4 8 C-2.25 2.25 -2.25 2.25 0 0 Z " fill="#79D2C6" transform="translate(28,16)"/>
<path d="M0 0 C1.22589844 0.15275391 1.22589844 0.15275391 2.4765625 0.30859375 C3.41628906 0.43427734 3.41628906 0.43427734 4.375 0.5625 C4.375 0.8925 4.375 1.2225 4.375 1.5625 C2.91864629 1.78424933 1.45977044 1.98948698 0 2.1875 C-0.81210937 2.30351562 -1.62421875 2.41953125 -2.4609375 2.5390625 C-3.17507812 2.54679688 -3.88921875 2.55453125 -4.625 2.5625 C-5.285 1.9025 -5.945 1.2425 -6.625 0.5625 C-4.10446405 -0.69776798 -2.7707902 -0.35624445 0 0 Z " fill="#53C3B2" transform="translate(42.625,10.4375)"/>
<path d="M0 0 C-0.33 0.99 -0.66 1.98 -1 3 C-2.98 3 -4.96 3 -7 3 C-7 2.34 -7 1.68 -7 1 C-4 0 -4 0 0 0 Z " fill="#32A797" transform="translate(119,52)"/>
</svg>
